<svg width="126" height="96" viewBox="0 0 126 96" fill="none" xmlns="http://www.w3.org/2000/svg">
<g id="line">
<path id="Vector 1" d="M125.667 3.16845C125.667 4.64121 124.473 5.83511 123 5.83511C121.527 5.83511 120.333 4.64121 120.333 3.16845C120.333 1.69569 121.527 0.50178 123 0.50178C124.473 0.50178 125.667 1.69569 125.667 3.16845ZM123 3.66845C116.562 3.66845 107.84 3.20102 100.243 3.82276C96.449 4.13324 92.9795 4.71327 90.2505 5.74195C87.5163 6.77263 85.6058 8.22216 84.7911 10.2201L83.8651 9.84245C84.8314 7.47311 87.0461 5.88117 89.8978 4.80622C92.7548 3.72928 96.3317 3.1395 100.161 2.82609C107.811 2.20004 116.644 2.66845 123 2.66845V3.66845Z" fill="black"/>
<path id="Vector 5" d="M17.3334 93C17.3334 91.5272 18.5273 90.3333 20 90.3333C21.4728 90.3333 22.6667 91.5272 22.6667 93C22.6667 94.4728 21.4728 95.6667 20 95.6667C18.5273 95.6667 17.3334 94.4728 17.3334 93ZM19.8571 93.4791C12.6785 91.3381 7.83886 88.4577 4.80857 85.2012C1.76944 81.9352 0.570623 78.3116 0.646634 74.7491C0.797752 67.6664 5.97532 60.9225 11.4141 57.6497L11.9297 58.5065C6.69659 61.6556 1.78824 68.1227 1.64641 74.7704C1.57594 78.0731 2.67889 81.4446 5.54064 84.52C8.41123 87.6048 13.0716 90.4119 20.1429 92.5209L19.8571 93.4791Z" fill="black"/>
<path id="Vector 2" d="M82.9199 12.375C72.8163 26.4346 59.0304 25.2588 50.417 34.6314" stroke="black"/>
<path id="Vector 3" d="M47.4141 37.5703C38.4652 46.9453 21.7607 43.4297 14.6016 54.5625" stroke="black"/>
</g>
</svg>
