<svg width="134" height="60" viewBox="0 0 134 60" fill="none" xmlns="http://www.w3.org/2000/svg">
<g id="line">
<path id="Vector 1" d="M0.333333 3.14374C0.333333 4.6165 1.52724 5.81041 3 5.81041C4.47276 5.81041 5.66667 4.6165 5.66667 3.14374C5.66667 1.67098 4.47276 0.477075 3 0.477075C1.52724 0.477075 0.333333 1.67098 0.333333 3.14374ZM3 3.64374C8.49985 3.64374 15.9343 3.24495 22.4134 3.77518C25.6482 4.03991 28.6011 4.53415 30.9204 5.40842C33.245 6.28469 34.8529 7.51117 35.537 9.1888L36.463 8.8112C35.6274 6.76212 33.7151 5.39323 31.2731 4.47269C28.8258 3.55016 25.7655 3.04617 22.495 2.77851C15.9632 2.24396 8.41745 2.64374 3 2.64374V3.64374Z" fill="black"/>
<path id="Vector 5" d="M133.667 56.8323C133.667 55.3595 132.473 54.1656 131 54.1656C129.527 54.1656 128.333 55.3595 128.333 56.8323C128.333 58.3051 129.527 59.499 131 59.499C132.473 59.499 133.667 58.3051 133.667 56.8323ZM131 56.3323C125.493 56.3323 118.068 56.7975 111.593 56.1793C108.362 55.8708 105.417 55.2952 103.105 54.2783C100.797 53.2635 99.1705 51.8333 98.472 49.835L97.528 50.165C98.3493 52.5145 100.243 54.1122 102.702 55.1937C105.156 56.2731 108.224 56.8621 111.498 57.1748C118.034 57.7988 125.589 57.3323 131 57.3323V56.3323Z" fill="black"/>
<path id="Vector 2" d="M37.2017 11C45.8234 22.9975 57.5874 21.9942 64.9375 29.9921" stroke="black"/>
<path id="Vector 3" d="M67.5 32.5C75.1364 40.5 89.3909 37.5 95.5 47" stroke="black"/>
</g>
</svg>
